<svg xmlns="http://www.w3.org/2000/svg" xmlns:xlink="http://www.w3.org/1999/xlink" width="320" zoomAndPan="magnify" viewBox="0 0 240 239.999995" height="320" preserveAspectRatio="xMidYMid meet" version="1.0"><defs><clipPath id="id1"><path d="M 0 14.101562 L 240 14.101562 L 240 225.601562 L 0 225.601562 Z M 0 14.101562 " clip-rule="nonzero"/></clipPath></defs><path fill="#000000" d="M 60.058594 201.65625 C 57.859375 201.65625 56.0625 199.863281 56.0625 197.664062 C 56.0625 195.46875 57.859375 193.675781 60.058594 193.675781 C 62.257812 193.675781 64.054688 195.46875 64.054688 197.664062 C 64.054688 199.863281 62.257812 201.65625 60.058594 201.65625 Z M 60.058594 185.695312 C 53.441406 185.695312 48.070312 191.054688 48.070312 197.664062 C 48.070312 204.273438 53.441406 209.636719 60.058594 209.636719 C 66.675781 209.636719 72.046875 204.273438 72.046875 197.664062 C 72.046875 191.054688 66.675781 185.695312 60.058594 185.695312 " fill-opacity="1" fill-rule="nonzero"/><path fill="#000000" d="M 191.929688 201.65625 C 189.730469 201.65625 187.933594 199.863281 187.933594 197.664062 C 187.933594 195.46875 189.730469 193.675781 191.929688 193.675781 C 194.128906 193.675781 195.925781 195.46875 195.925781 197.664062 C 195.925781 199.863281 194.128906 201.65625 191.929688 201.65625 Z M 191.929688 185.695312 C 185.3125 185.695312 179.941406 191.054688 179.941406 197.664062 C 179.941406 204.273438 185.3125 209.636719 191.929688 209.636719 C 198.546875 209.636719 203.917969 204.273438 203.917969 197.664062 C 203.917969 191.054688 198.546875 185.695312 191.929688 185.695312 " fill-opacity="1" fill-rule="nonzero"/><path fill="#000000" d="M 179.941406 149.777344 L 171.949219 149.777344 C 169.75 149.777344 167.953125 151.570312 167.953125 153.769531 C 167.953125 155.96875 169.75 157.761719 171.949219 157.761719 L 179.941406 157.761719 C 182.140625 157.761719 183.9375 155.96875 183.9375 153.769531 C 183.9375 151.570312 182.140625 149.777344 179.941406 149.777344 " fill-opacity="1" fill-rule="nonzero"/><g clip-path="url(#id1)"><path fill="#000000" d="M 231.890625 157.761719 L 219.902344 157.761719 C 217.703125 157.761719 215.90625 155.96875 215.90625 153.769531 C 215.90625 151.570312 217.703125 149.777344 219.902344 149.777344 L 231.890625 149.777344 Z M 214.84375 181.703125 C 209.789062 174.488281 201.40625 169.730469 191.929688 169.730469 C 182.453125 169.730469 174.070312 174.488281 169.015625 181.703125 L 159.960938 181.703125 L 159.960938 73.957031 L 175.945312 73.957031 L 175.945312 125.835938 C 175.945312 128.035156 177.742188 129.828125 179.941406 129.828125 L 231.890625 129.828125 L 231.890625 141.796875 L 219.902344 141.796875 C 213.285156 141.796875 207.914062 147.160156 207.914062 153.769531 C 207.914062 160.378906 213.285156 165.742188 219.902344 165.742188 L 231.890625 165.742188 L 231.890625 181.703125 Z M 191.929688 217.617188 C 180.910156 217.617188 171.949219 208.671875 171.949219 197.664062 C 171.949219 186.660156 180.910156 177.714844 191.929688 177.714844 C 202.949219 177.714844 211.910156 186.660156 211.910156 197.664062 C 211.910156 208.671875 202.949219 217.617188 191.929688 217.617188 Z M 60.058594 169.730469 C 50.582031 169.730469 42.199219 174.488281 37.144531 181.703125 L 8.109375 181.703125 L 8.109375 173.722656 L 16.101562 173.722656 C 18.300781 173.722656 20.097656 171.929688 20.097656 169.730469 C 20.097656 167.535156 18.300781 165.742188 16.101562 165.742188 L 8.109375 165.742188 L 8.109375 157.761719 L 151.96875 157.761719 L 151.96875 181.703125 L 82.972656 181.703125 C 77.917969 174.488281 69.535156 169.730469 60.058594 169.730469 Z M 60.058594 217.617188 C 49.039062 217.617188 40.078125 208.671875 40.078125 197.664062 C 40.078125 186.660156 49.039062 177.714844 60.058594 177.714844 C 71.078125 177.714844 80.039062 186.660156 80.039062 197.664062 C 80.039062 208.671875 71.078125 217.617188 60.058594 217.617188 Z M 88.03125 141.796875 L 135.984375 141.796875 L 135.984375 149.777344 L 88.03125 149.777344 Z M 96.023438 117.855469 L 127.992188 117.855469 L 127.992188 133.816406 L 96.023438 133.816406 Z M 39.8125 22.082031 L 57.984375 22.082031 L 120.265625 109.875 L 102.09375 109.875 Z M 190.273438 73.957031 L 231.890625 115.515625 L 231.890625 121.84375 L 183.9375 121.84375 L 183.9375 73.957031 Z M 36.957031 77.949219 L 27.214844 77.949219 L 25.21875 69.96875 L 38.953125 69.96875 Z M 194.753906 67.144531 C 194.003906 66.398438 192.992188 65.976562 191.929688 65.976562 L 155.964844 65.976562 C 153.765625 65.976562 151.96875 67.769531 151.96875 69.96875 L 151.96875 149.777344 L 143.976562 149.777344 L 143.976562 137.808594 C 143.976562 135.609375 142.179688 133.816406 139.980469 133.816406 L 135.984375 133.816406 L 135.984375 113.863281 C 135.984375 111.667969 134.1875 109.875 131.988281 109.875 L 130.066406 109.875 L 63.320312 15.785156 C 62.570312 14.722656 61.355469 14.101562 60.058594 14.101562 L 32.085938 14.101562 C 31.601562 14.101562 31.148438 14.226562 30.710938 14.378906 C 30.585938 14.425781 30.460938 14.472656 30.351562 14.535156 C 30.011719 14.707031 29.699219 14.910156 29.417969 15.160156 C 29.355469 15.222656 29.292969 15.253906 29.230469 15.316406 C 28.964844 15.597656 28.714844 15.910156 28.542969 16.25 C 28.511719 16.3125 28.402344 16.65625 28.355469 16.75 C 28.230469 17.125 28.089844 18.011719 28.089844 18.089844 L 28.089844 61.988281 L 20.097656 61.988281 C 18.863281 61.988281 17.710938 62.546875 16.945312 63.53125 C 16.195312 64.496094 15.929688 65.757812 16.226562 66.945312 L 20.222656 82.90625 C 20.660156 84.683594 22.265625 85.929688 24.09375 85.929688 L 28.089844 85.929688 L 28.089844 93.910156 C 28.089844 96.109375 29.886719 97.902344 32.085938 97.902344 C 38.703125 97.902344 44.074219 103.265625 44.074219 109.875 C 44.074219 116.484375 38.703125 121.84375 32.085938 121.84375 C 25.46875 121.84375 20.097656 116.484375 20.097656 109.875 C 20.097656 107.675781 18.300781 105.882812 16.101562 105.882812 C 13.902344 105.882812 12.105469 107.675781 12.105469 109.875 C 12.105469 120.878906 21.066406 129.828125 32.085938 129.828125 C 43.105469 129.828125 52.066406 120.878906 52.066406 109.875 C 52.066406 100.238281 45.199219 92.179688 36.082031 90.324219 L 36.082031 85.929688 L 40.078125 85.929688 C 41.921875 85.929688 43.511719 84.683594 43.949219 82.90625 L 47.945312 66.945312 C 48.242188 65.757812 47.976562 64.496094 47.226562 63.53125 C 46.460938 62.546875 45.308594 61.988281 44.074219 61.988281 L 36.082031 61.988281 L 36.082031 30.640625 L 92.292969 109.875 L 92.027344 109.875 C 89.828125 109.875 88.03125 111.667969 88.03125 113.863281 L 88.03125 133.816406 L 84.035156 133.816406 C 81.835938 133.816406 80.039062 135.609375 80.039062 137.808594 L 80.039062 149.777344 L 4.113281 149.777344 C 1.914062 149.777344 0.117188 151.570312 0.117188 153.769531 L 0.117188 185.695312 C 0.117188 187.890625 1.914062 189.683594 4.113281 189.683594 L 33.257812 189.683594 C 32.507812 192.226562 32.085938 194.890625 32.085938 197.664062 C 32.085938 205.476562 35.316406 212.550781 40.515625 217.617188 L 4.113281 217.617188 C 1.914062 217.617188 0.117188 219.410156 0.117188 221.609375 C 0.117188 223.808594 1.914062 225.601562 4.113281 225.601562 L 135.984375 225.601562 C 138.183594 225.601562 139.980469 223.808594 139.980469 221.609375 C 139.980469 219.410156 138.183594 217.617188 135.984375 217.617188 L 79.601562 217.617188 C 84.800781 212.550781 88.03125 205.476562 88.03125 197.664062 C 88.03125 194.890625 87.609375 192.226562 86.859375 189.683594 L 165.128906 189.683594 C 164.378906 192.226562 163.957031 194.890625 163.957031 197.664062 C 163.957031 205.476562 167.1875 212.550781 172.386719 217.617188 L 151.96875 217.617188 C 149.769531 217.617188 147.972656 219.410156 147.972656 221.609375 C 147.972656 223.808594 149.769531 225.601562 151.96875 225.601562 L 235.886719 225.601562 C 238.085938 225.601562 239.882812 223.808594 239.882812 221.609375 C 239.882812 219.410156 238.085938 217.617188 235.886719 217.617188 L 211.472656 217.617188 C 216.671875 212.550781 219.902344 205.476562 219.902344 197.664062 C 219.902344 194.890625 219.480469 192.226562 218.730469 189.683594 L 235.886719 189.683594 C 238.085938 189.683594 239.882812 187.890625 239.882812 185.695312 L 239.882812 113.863281 C 239.882812 112.804688 239.460938 111.789062 238.710938 111.042969 L 194.753906 67.144531 " fill-opacity="1" fill-rule="nonzero"/></g></svg>