<svg xmlns="http://www.w3.org/2000/svg" xmlns:xlink="http://www.w3.org/1999/xlink" width="320" zoomAndPan="magnify" viewBox="0 0 240 239.999995" height="320" preserveAspectRatio="xMidYMid meet" version="1.0"><defs><clipPath id="id1"><path d="M 10.050781 0 L 229.800781 0 L 229.800781 240 L 10.050781 240 Z M 10.050781 0 " clip-rule="nonzero"/></clipPath></defs><g clip-path="url(#id1)"><path fill="#000000" d="M 153.171875 84.457031 L 133.015625 81.378906 L 123.859375 63.144531 C 123.480469 62.390625 122.933594 61.792969 122.21875 61.351562 C 121.5 60.910156 120.722656 60.6875 119.878906 60.6875 C 119.039062 60.6875 118.257812 60.910156 117.542969 61.351562 C 116.828125 61.792969 116.277344 62.390625 115.902344 63.144531 L 106.746094 81.378906 L 86.589844 84.457031 C 85.757812 84.585938 85.019531 84.921875 84.378906 85.46875 C 83.738281 86.015625 83.289062 86.6875 83.03125 87.488281 C 82.773438 88.289062 82.742188 89.101562 82.941406 89.917969 C 83.140625 90.738281 83.539062 91.441406 84.140625 92.035156 L 98.636719 106.378906 L 95.316406 126.507812 C 95.179688 127.339844 95.273438 128.144531 95.59375 128.921875 C 95.914062 129.703125 96.414062 130.339844 97.09375 130.832031 C 97.777344 131.328125 98.535156 131.609375 99.375 131.671875 C 100.214844 131.734375 101.007812 131.574219 101.757812 131.1875 L 119.871094 121.828125 L 137.988281 131.1875 C 138.734375 131.574219 139.53125 131.734375 140.367188 131.671875 C 141.207031 131.609375 141.96875 131.328125 142.648438 130.832031 C 143.332031 130.339844 143.832031 129.703125 144.152344 128.921875 C 144.472656 128.144531 144.566406 127.339844 144.429688 126.507812 L 141.128906 106.375 L 155.625 92.027344 C 156.226562 91.4375 156.625 90.734375 156.824219 89.914062 C 157.023438 89.097656 156.992188 88.285156 156.734375 87.484375 C 156.476562 86.683594 156.027344 86.011719 155.386719 85.464844 C 154.746094 84.917969 154.007812 84.582031 153.175781 84.453125 Z M 133.234375 101.660156 C 132.71875 102.167969 132.351562 102.765625 132.128906 103.453125 C 131.90625 104.140625 131.855469 104.839844 131.972656 105.550781 L 134.207031 119.203125 L 121.921875 112.851562 C 121.28125 112.523438 120.601562 112.355469 119.878906 112.355469 C 119.15625 112.355469 118.476562 112.523438 117.832031 112.851562 L 105.5625 119.199219 L 107.789062 105.546875 C 107.90625 104.835938 107.851562 104.132812 107.628906 103.449219 C 107.40625 102.761719 107.039062 102.164062 106.523438 101.65625 L 96.691406 91.925781 L 110.363281 89.839844 C 111.074219 89.730469 111.722656 89.460938 112.308594 89.039062 C 112.890625 88.613281 113.34375 88.078125 113.667969 87.433594 L 119.878906 75.070312 L 126.085938 87.433594 C 126.410156 88.078125 126.863281 88.613281 127.445312 89.039062 C 128.03125 89.460938 128.675781 89.730469 129.390625 89.839844 L 143.058594 91.925781 Z M 185.285156 98.941406 C 185.285156 97.871094 185.261719 96.796875 185.207031 95.726562 C 185.15625 94.65625 185.078125 93.585938 184.972656 92.519531 C 184.867188 91.453125 184.734375 90.390625 184.578125 89.328125 C 184.421875 88.269531 184.238281 87.210938 184.027344 86.160156 C 183.820312 85.109375 183.585938 84.0625 183.324219 83.023438 C 183.066406 81.984375 182.777344 80.949219 182.46875 79.921875 C 182.15625 78.898438 181.820312 77.878906 181.460938 76.871094 C 181.097656 75.859375 180.714844 74.859375 180.304688 73.871094 C 179.894531 72.878906 179.460938 71.898438 179 70.929688 C 178.542969 69.960938 178.0625 69.003906 177.554688 68.058594 C 177.050781 67.113281 176.523438 66.179688 175.972656 65.261719 C 175.421875 64.339844 174.847656 63.433594 174.253906 62.542969 C 173.65625 61.652344 173.039062 60.773438 172.402344 59.914062 C 171.765625 59.054688 171.105469 58.207031 170.425781 57.378906 C 169.746094 56.550781 169.046875 55.738281 168.328125 54.945312 C 167.605469 54.148438 166.867188 53.375 166.109375 52.613281 C 165.351562 51.855469 164.578125 51.117188 163.78125 50.398438 C 162.988281 49.679688 162.179688 48.976562 161.347656 48.296875 C 160.519531 47.617188 159.675781 46.957031 158.816406 46.320312 C 157.957031 45.679688 157.078125 45.0625 156.1875 44.46875 C 155.296875 43.871094 154.394531 43.296875 153.472656 42.746094 C 152.554688 42.195312 151.621094 41.667969 150.675781 41.164062 C 149.734375 40.65625 148.777344 40.175781 147.808594 39.714844 C 146.839844 39.257812 145.859375 38.824219 144.871094 38.414062 C 143.878906 38.003906 142.878906 37.617188 141.871094 37.257812 C 140.863281 36.894531 139.84375 36.558594 138.820312 36.246094 C 137.792969 35.9375 136.761719 35.648438 135.722656 35.390625 C 134.683594 35.128906 133.636719 34.894531 132.585938 34.683594 C 131.535156 34.476562 130.480469 34.292969 129.421875 34.136719 C 128.359375 33.976562 127.296875 33.847656 126.230469 33.742188 C 125.164062 33.636719 124.097656 33.558594 123.027344 33.503906 C 121.957031 33.453125 120.886719 33.425781 119.8125 33.425781 C 118.742188 33.425781 117.671875 33.453125 116.601562 33.503906 C 115.53125 33.558594 114.460938 33.636719 113.394531 33.742188 C 112.328125 33.847656 111.265625 33.976562 110.207031 34.136719 C 109.148438 34.292969 108.089844 34.476562 107.039062 34.683594 C 105.988281 34.894531 104.945312 35.128906 103.90625 35.390625 C 102.867188 35.648438 101.832031 35.9375 100.808594 36.246094 C 99.78125 36.558594 98.765625 36.894531 97.757812 37.257812 C 96.746094 37.617188 95.746094 38.003906 94.757812 38.414062 C 93.769531 38.824219 92.789062 39.257812 91.820312 39.714844 C 90.851562 40.175781 89.894531 40.65625 88.949219 41.164062 C 88.003906 41.667969 87.074219 42.195312 86.152344 42.746094 C 85.234375 43.296875 84.328125 43.871094 83.4375 44.46875 C 82.546875 45.0625 81.671875 45.679688 80.8125 46.320312 C 79.949219 46.957031 79.105469 47.617188 78.277344 48.296875 C 77.449219 48.976562 76.636719 49.679688 75.84375 50.398438 C 75.050781 51.117188 74.273438 51.855469 73.515625 52.613281 C 72.757812 53.375 72.019531 54.148438 71.300781 54.945312 C 70.582031 55.738281 69.882812 56.550781 69.203125 57.378906 C 68.523438 58.207031 67.863281 59.054688 67.226562 59.914062 C 66.585938 60.773438 65.96875 61.652344 65.375 62.542969 C 64.777344 63.433594 64.207031 64.339844 63.65625 65.261719 C 63.105469 66.179688 62.578125 67.113281 62.070312 68.058594 C 61.566406 69.003906 61.085938 69.960938 60.625 70.929688 C 60.167969 71.898438 59.734375 72.878906 59.324219 73.871094 C 58.914062 74.859375 58.527344 75.859375 58.167969 76.871094 C 57.804688 77.878906 57.46875 78.898438 57.160156 79.921875 C 56.847656 80.949219 56.5625 81.984375 56.300781 83.023438 C 56.042969 84.0625 55.808594 85.109375 55.597656 86.160156 C 55.390625 87.210938 55.207031 88.269531 55.050781 89.328125 C 54.890625 90.390625 54.761719 91.453125 54.65625 92.519531 C 54.550781 93.585938 54.472656 94.65625 54.417969 95.726562 C 54.367188 96.796875 54.339844 97.871094 54.339844 98.941406 C 54.339844 100.015625 54.367188 101.085938 54.417969 102.15625 C 54.472656 103.226562 54.550781 104.296875 54.65625 105.363281 C 54.761719 106.429688 54.890625 107.492188 55.050781 108.554688 C 55.207031 109.613281 55.390625 110.671875 55.597656 111.722656 C 55.808594 112.773438 56.042969 113.820312 56.300781 114.859375 C 56.5625 115.902344 56.847656 116.933594 57.160156 117.960938 C 57.46875 118.984375 57.804688 120.003906 58.167969 121.011719 C 58.527344 122.023438 58.914062 123.023438 59.324219 124.011719 C 59.734375 125.003906 60.167969 125.984375 60.625 126.953125 C 61.085938 127.921875 61.566406 128.878906 62.070312 129.824219 C 62.578125 130.769531 63.105469 131.703125 63.65625 132.625 C 64.207031 133.542969 64.777344 134.449219 65.375 135.339844 C 65.96875 136.230469 66.585938 137.109375 67.226562 137.96875 C 67.863281 138.832031 68.523438 139.675781 69.203125 140.503906 C 69.882812 141.332031 70.582031 142.144531 71.300781 142.9375 C 72.019531 143.734375 72.757812 144.507812 73.515625 145.269531 C 74.273438 146.027344 75.050781 146.765625 75.84375 147.484375 C 76.636719 148.207031 77.449219 148.90625 78.277344 149.585938 C 79.105469 150.265625 79.949219 150.925781 80.8125 151.5625 C 81.671875 152.203125 82.546875 152.820312 83.4375 153.414062 C 84.328125 154.011719 85.234375 154.585938 86.152344 155.136719 C 87.074219 155.6875 88.003906 156.214844 88.949219 156.722656 C 89.894531 157.226562 90.851562 157.707031 91.820312 158.167969 C 92.789062 158.625 93.769531 159.058594 94.757812 159.46875 C 95.746094 159.878906 96.746094 160.265625 97.757812 160.628906 C 98.765625 160.988281 99.78125 161.324219 100.808594 161.636719 C 101.832031 161.945312 102.867188 162.234375 103.90625 162.492188 C 104.945312 162.753906 105.988281 162.988281 107.039062 163.199219 C 108.089844 163.40625 109.148438 163.589844 110.207031 163.746094 C 111.265625 163.90625 112.328125 164.035156 113.394531 164.140625 C 114.460938 164.246094 115.53125 164.324219 116.601562 164.378906 C 117.671875 164.429688 118.742188 164.457031 119.8125 164.457031 C 120.886719 164.457031 121.957031 164.429688 123.023438 164.375 C 124.09375 164.320312 125.164062 164.242188 126.230469 164.136719 C 127.296875 164.03125 128.359375 163.898438 129.417969 163.738281 C 130.476562 163.582031 131.53125 163.398438 132.582031 163.1875 C 133.632812 162.976562 134.675781 162.742188 135.714844 162.480469 C 136.753906 162.21875 137.789062 161.933594 138.8125 161.621094 C 139.835938 161.308594 140.855469 160.972656 141.863281 160.609375 C 142.871094 160.25 143.871094 159.863281 144.859375 159.453125 C 145.847656 159.042969 146.828125 158.605469 147.796875 158.148438 C 148.765625 157.691406 149.71875 157.207031 150.664062 156.703125 C 151.609375 156.195312 152.539062 155.667969 153.460938 155.117188 C 154.378906 154.566406 155.28125 153.992188 156.171875 153.394531 C 157.0625 152.800781 157.941406 152.183594 158.800781 151.542969 C 159.660156 150.90625 160.503906 150.246094 161.332031 149.566406 C 162.160156 148.886719 162.972656 148.1875 163.765625 147.464844 C 164.558594 146.746094 165.332031 146.007812 166.089844 145.25 C 166.847656 144.492188 167.585938 143.714844 168.308594 142.921875 C 169.027344 142.125 169.726562 141.316406 170.40625 140.488281 C 171.085938 139.65625 171.746094 138.8125 172.382812 137.953125 C 173.019531 137.089844 173.636719 136.214844 174.234375 135.324219 C 174.828125 134.433594 175.402344 133.527344 175.953125 132.609375 C 176.503906 131.691406 177.03125 130.757812 177.535156 129.8125 C 178.042969 128.867188 178.523438 127.910156 178.984375 126.941406 C 179.441406 125.972656 179.875 124.992188 180.285156 124.003906 C 180.695312 123.011719 181.082031 122.011719 181.445312 121.003906 C 181.804688 119.996094 182.140625 118.976562 182.453125 117.953125 C 182.765625 116.925781 183.050781 115.894531 183.3125 114.855469 C 183.574219 113.816406 183.808594 112.769531 184.019531 111.71875 C 184.226562 110.667969 184.410156 109.613281 184.570312 108.550781 C 184.726562 107.492188 184.859375 106.429688 184.964844 105.359375 C 185.070312 104.292969 185.152344 103.226562 185.207031 102.15625 C 185.257812 101.085938 185.285156 100.011719 185.285156 98.941406 Z M 119.8125 155.542969 C 117.960938 155.542969 116.113281 155.453125 114.269531 155.269531 C 112.425781 155.089844 110.59375 154.816406 108.777344 154.457031 C 106.960938 154.09375 105.167969 153.644531 103.394531 153.105469 C 101.621094 152.566406 99.878906 151.945312 98.167969 151.234375 C 96.457031 150.523438 94.78125 149.734375 93.148438 148.859375 C 91.515625 147.984375 89.929688 147.035156 88.386719 146.003906 C 86.847656 144.972656 85.359375 143.871094 83.929688 142.695312 C 82.496094 141.519531 81.125 140.277344 79.816406 138.964844 C 78.503906 137.652344 77.261719 136.28125 76.089844 134.847656 C 74.914062 133.417969 73.808594 131.929688 72.78125 130.386719 C 71.75 128.847656 70.800781 127.257812 69.925781 125.625 C 69.054688 123.988281 68.261719 122.316406 67.554688 120.601562 C 66.84375 118.890625 66.222656 117.144531 65.683594 115.371094 C 65.144531 113.597656 64.695312 111.800781 64.335938 109.984375 C 63.972656 108.164062 63.703125 106.335938 63.519531 104.488281 C 63.339844 102.644531 63.25 100.796875 63.25 98.941406 C 63.25 97.085938 63.339844 95.238281 63.519531 93.394531 C 63.703125 91.546875 63.972656 89.71875 64.335938 87.898438 C 64.695312 86.082031 65.144531 84.285156 65.683594 82.511719 C 66.222656 80.738281 66.84375 78.992188 67.554688 77.28125 C 68.261719 75.566406 69.054688 73.894531 69.925781 72.257812 C 70.800781 70.625 71.75 69.035156 72.78125 67.496094 C 73.808594 65.953125 74.914062 64.464844 76.089844 63.035156 C 77.261719 61.601562 78.503906 60.230469 79.816406 58.917969 C 81.125 57.605469 82.496094 56.363281 83.929688 55.1875 C 85.359375 54.011719 86.847656 52.910156 88.386719 51.878906 C 89.929688 50.847656 91.515625 49.898438 93.148438 49.023438 C 94.78125 48.148438 96.457031 47.359375 98.167969 46.648438 C 99.878906 45.9375 101.621094 45.316406 103.394531 44.777344 C 105.167969 44.238281 106.960938 43.789062 108.777344 43.425781 C 110.59375 43.066406 112.425781 42.792969 114.269531 42.613281 C 116.113281 42.429688 117.960938 42.339844 119.8125 42.339844 C 121.667969 42.339844 123.515625 42.429688 125.359375 42.613281 C 127.203125 42.792969 129.03125 43.066406 130.847656 43.425781 C 132.664062 43.789062 134.460938 44.238281 136.234375 44.777344 C 138.007812 45.316406 139.75 45.9375 141.460938 46.648438 C 143.171875 47.359375 144.84375 48.148438 146.476562 49.023438 C 148.113281 49.898438 149.699219 50.847656 151.238281 51.878906 C 152.78125 52.910156 154.265625 54.011719 155.699219 55.1875 C 157.128906 56.363281 158.5 57.605469 159.8125 58.917969 C 161.121094 60.230469 162.363281 61.601562 163.539062 63.035156 C 164.714844 64.464844 165.816406 65.953125 166.847656 67.496094 C 167.875 69.035156 168.828125 70.625 169.699219 72.257812 C 170.574219 73.894531 171.363281 75.566406 172.074219 77.28125 C 172.78125 78.992188 173.40625 80.738281 173.945312 82.511719 C 174.480469 84.285156 174.929688 86.082031 175.292969 87.898438 C 175.652344 89.71875 175.925781 91.546875 176.105469 93.394531 C 176.289062 95.238281 176.378906 97.085938 176.378906 98.941406 C 176.378906 100.792969 176.285156 102.644531 176.101562 104.488281 C 175.917969 106.332031 175.644531 108.164062 175.28125 109.980469 C 174.921875 111.796875 174.46875 113.59375 173.929688 115.367188 C 173.390625 117.140625 172.769531 118.882812 172.058594 120.59375 C 171.347656 122.304688 170.558594 123.976562 169.683594 125.613281 C 168.808594 127.246094 167.859375 128.832031 166.828125 130.375 C 165.800781 131.914062 164.699219 133.402344 163.523438 134.835938 C 162.347656 136.265625 161.105469 137.636719 159.796875 138.949219 C 158.484375 140.257812 157.113281 141.503906 155.683594 142.679688 C 154.25 143.855469 152.765625 144.957031 151.226562 145.988281 C 149.6875 147.015625 148.101562 147.96875 146.46875 148.84375 C 144.835938 149.71875 143.164062 150.507812 141.453125 151.21875 C 139.742188 151.929688 138 152.554688 136.226562 153.09375 C 134.457031 153.632812 132.660156 154.082031 130.84375 154.445312 C 129.027344 154.808594 127.199219 155.082031 125.355469 155.265625 C 123.511719 155.449219 121.664062 155.542969 119.8125 155.542969 Z M 228.300781 194.316406 L 198.292969 154.460938 C 199.640625 153.644531 200.863281 152.667969 201.957031 151.53125 C 203.054688 150.398438 203.988281 149.148438 204.761719 147.773438 C 205.535156 146.398438 206.125 144.949219 206.527344 143.425781 C 206.929688 141.902344 207.132812 140.351562 207.136719 138.773438 L 207.136719 124.894531 C 207.136719 123.203125 207.558594 121.625 208.402344 120.160156 L 215.339844 108.125 C 216.144531 106.726562 216.753906 105.25 217.171875 103.691406 C 217.585938 102.132812 217.796875 100.546875 217.796875 98.933594 C 217.796875 97.320312 217.585938 95.734375 217.171875 94.175781 C 216.753906 92.617188 216.144531 91.136719 215.339844 89.742188 L 208.402344 77.707031 C 207.558594 76.238281 207.136719 74.660156 207.136719 72.972656 L 207.136719 59.109375 C 207.132812 57.496094 206.921875 55.910156 206.503906 54.351562 C 206.085938 52.792969 205.472656 51.316406 204.667969 49.921875 C 203.863281 48.523438 202.890625 47.253906 201.75 46.113281 C 200.613281 44.96875 199.34375 43.996094 197.949219 43.1875 L 185.925781 36.246094 C 184.460938 35.398438 183.304688 34.242188 182.457031 32.777344 L 175.523438 20.746094 C 174.714844 19.347656 173.738281 18.082031 172.597656 16.941406 C 171.457031 15.800781 170.1875 14.828125 168.792969 14.023438 C 167.394531 13.214844 165.921875 12.605469 164.363281 12.183594 C 162.804688 11.765625 161.222656 11.554688 159.609375 11.554688 L 145.734375 11.554688 C 144.046875 11.554688 142.46875 11.128906 141.003906 10.285156 L 128.976562 3.34375 C 127.582031 2.539062 126.101562 1.929688 124.546875 1.511719 C 122.988281 1.097656 121.402344 0.886719 119.792969 0.886719 C 118.179688 0.886719 116.59375 1.097656 115.039062 1.511719 C 113.480469 1.929688 112.003906 2.539062 110.605469 3.34375 L 98.578125 10.285156 C 97.113281 11.132812 95.539062 11.554688 93.847656 11.554688 L 79.972656 11.554688 C 78.359375 11.554688 76.777344 11.765625 75.21875 12.183594 C 73.664062 12.605469 72.1875 13.214844 70.789062 14.023438 C 69.394531 14.828125 68.125 15.800781 66.984375 16.941406 C 65.84375 18.082031 64.871094 19.347656 64.0625 20.746094 L 57.125 32.777344 C 56.277344 34.242188 55.121094 35.398438 53.660156 36.246094 L 41.632812 43.1875 C 40.238281 43.996094 38.972656 44.96875 37.832031 46.113281 C 36.695312 47.253906 35.722656 48.523438 34.914062 49.921875 C 34.109375 51.316406 33.496094 52.792969 33.078125 54.351562 C 32.660156 55.910156 32.449219 57.496094 32.445312 59.109375 L 32.445312 72.988281 C 32.445312 74.679688 32.023438 76.257812 31.179688 77.726562 L 24.242188 89.757812 C 23.4375 91.15625 22.828125 92.632812 22.410156 94.191406 C 21.996094 95.75 21.789062 97.335938 21.789062 98.949219 C 21.789062 100.5625 21.996094 102.148438 22.410156 103.707031 C 22.828125 105.265625 23.4375 106.746094 24.242188 108.144531 L 31.179688 120.175781 C 32.023438 121.644531 32.445312 123.222656 32.445312 124.910156 L 32.445312 138.792969 C 32.449219 140.367188 32.652344 141.917969 33.054688 143.445312 C 33.457031 144.96875 34.046875 146.417969 34.820312 147.792969 C 35.59375 149.164062 36.53125 150.417969 37.625 151.550781 C 38.722656 152.683594 39.941406 153.660156 41.289062 154.480469 L 11.324219 194.316406 C 11.070312 194.660156 10.863281 195.03125 10.714844 195.429688 C 10.5625 195.832031 10.472656 196.246094 10.441406 196.671875 C 10.410156 197.097656 10.441406 197.519531 10.53125 197.941406 C 10.621094 198.359375 10.765625 198.753906 10.972656 199.132812 C 11.179688 199.503906 11.433594 199.839844 11.738281 200.144531 C 12.039062 200.445312 12.378906 200.695312 12.753906 200.902344 C 13.128906 201.105469 13.523438 201.253906 13.9375 201.347656 C 14.355469 201.4375 14.777344 201.472656 15.203125 201.445312 L 53.375 198.675781 L 61.238281 236.152344 C 61.324219 236.574219 61.46875 236.972656 61.671875 237.347656 C 61.875 237.726562 62.125 238.066406 62.425781 238.371094 C 62.726562 238.675781 63.066406 238.929688 63.4375 239.136719 C 63.8125 239.347656 64.210938 239.496094 64.625 239.589844 C 65.042969 239.683594 65.464844 239.714844 65.894531 239.6875 C 66.320312 239.65625 66.734375 239.570312 67.136719 239.421875 C 67.539062 239.273438 67.910156 239.070312 68.253906 238.816406 C 68.597656 238.5625 68.898438 238.261719 69.152344 237.921875 L 104.496094 190.984375 L 110.628906 194.527344 C 112.023438 195.332031 113.503906 195.945312 115.058594 196.359375 C 116.617188 196.777344 118.203125 196.984375 119.8125 196.984375 C 121.425781 196.984375 123.011719 196.777344 124.566406 196.359375 C 126.125 195.945312 127.601562 195.332031 129 194.527344 L 135.132812 190.976562 L 170.472656 237.902344 C 170.730469 238.246094 171.03125 238.542969 171.375 238.800781 C 171.71875 239.054688 172.089844 239.257812 172.492188 239.402344 C 172.894531 239.550781 173.308594 239.640625 173.734375 239.667969 C 174.160156 239.695312 174.582031 239.664062 175 239.570312 C 175.417969 239.476562 175.8125 239.328125 176.1875 239.121094 C 176.5625 238.914062 176.898438 238.65625 177.199219 238.351562 C 177.5 238.046875 177.753906 237.707031 177.953125 237.332031 C 178.15625 236.953125 178.300781 236.554688 178.390625 236.136719 L 186.25 198.65625 L 224.421875 201.449219 C 224.847656 201.476562 225.269531 201.441406 225.6875 201.351562 C 226.101562 201.257812 226.496094 201.109375 226.871094 200.90625 C 227.246094 200.699219 227.585938 200.449219 227.886719 200.148438 C 228.191406 199.84375 228.445312 199.507812 228.652344 199.136719 C 228.859375 198.757812 229.007812 198.363281 229.097656 197.945312 C 229.1875 197.523438 229.21875 197.101562 229.1875 196.675781 C 229.15625 196.246094 229.0625 195.832031 228.914062 195.433594 C 228.761719 195.03125 228.558594 194.660156 228.300781 194.316406 Z M 67.941406 224.710938 L 61.296875 193.023438 C 61.179688 192.5 60.980469 192.011719 60.6875 191.558594 C 60.398438 191.105469 60.039062 190.714844 59.609375 190.390625 C 59.183594 190.070312 58.710938 189.828125 58.195312 189.675781 C 57.679688 189.519531 57.15625 189.460938 56.617188 189.496094 L 24.339844 191.835938 L 49.085938 158.976562 L 53.691406 161.636719 C 55.15625 162.484375 56.3125 163.640625 57.15625 165.105469 L 64.09375 177.140625 C 64.902344 178.535156 65.878906 179.800781 67.019531 180.941406 C 68.160156 182.082031 69.425781 183.054688 70.824219 183.859375 C 72.21875 184.667969 73.695312 185.277344 75.253906 185.699219 C 76.808594 186.117188 78.394531 186.328125 80.007812 186.328125 L 93.878906 186.328125 C 94.789062 186.332031 95.679688 186.46875 96.554688 186.730469 Z M 124.546875 186.808594 C 123.828125 187.226562 123.066406 187.539062 122.261719 187.753906 C 121.460938 187.96875 120.644531 188.078125 119.8125 188.078125 C 118.984375 188.078125 118.167969 187.96875 117.363281 187.753906 C 116.5625 187.539062 115.800781 187.226562 115.082031 186.808594 L 103.066406 179.867188 C 100.222656 178.226562 97.164062 177.40625 93.878906 177.402344 L 80.007812 177.402344 C 79.175781 177.402344 78.359375 177.292969 77.558594 177.078125 C 76.753906 176.863281 75.996094 176.546875 75.277344 176.132812 C 74.554688 175.71875 73.902344 175.214844 73.316406 174.628906 C 72.726562 174.042969 72.226562 173.390625 71.808594 172.671875 L 64.871094 160.636719 C 63.230469 157.792969 60.988281 155.550781 58.144531 153.90625 L 46.121094 146.964844 C 45.402344 146.546875 44.75 146.046875 44.164062 145.457031 C 43.574219 144.871094 43.074219 144.214844 42.660156 143.496094 C 42.242188 142.777344 41.929688 142.015625 41.714844 141.214844 C 41.496094 140.410156 41.390625 139.59375 41.386719 138.761719 L 41.386719 124.894531 C 41.386719 121.609375 40.566406 118.546875 38.925781 115.703125 L 31.988281 103.667969 C 31.574219 102.949219 31.261719 102.1875 31.046875 101.382812 C 30.832031 100.582031 30.726562 99.761719 30.726562 98.933594 C 30.726562 98.101562 30.832031 97.285156 31.046875 96.480469 C 31.261719 95.679688 31.574219 94.917969 31.988281 94.195312 L 38.925781 82.164062 C 40.566406 79.316406 41.386719 76.253906 41.386719 72.972656 L 41.386719 59.109375 C 41.390625 58.277344 41.496094 57.460938 41.714844 56.660156 C 41.929688 55.855469 42.242188 55.09375 42.660156 54.375 C 43.074219 53.65625 43.574219 53.003906 44.164062 52.414062 C 44.75 51.828125 45.402344 51.324219 46.121094 50.90625 L 58.144531 43.964844 C 60.984375 42.320312 63.226562 40.078125 64.871094 37.234375 L 71.804688 25.199219 C 72.222656 24.480469 72.726562 23.828125 73.3125 23.242188 C 73.902344 22.65625 74.554688 22.152344 75.273438 21.738281 C 75.992188 21.324219 76.753906 21.007812 77.554688 20.792969 C 78.355469 20.578125 79.171875 20.46875 80.003906 20.46875 L 93.878906 20.46875 C 97.160156 20.464844 100.222656 19.644531 103.066406 18.003906 L 115.089844 11.0625 C 115.808594 10.648438 116.570312 10.335938 117.375 10.121094 C 118.175781 9.90625 118.992188 9.796875 119.824219 9.796875 C 120.652344 9.796875 121.46875 9.90625 122.273438 10.121094 C 123.074219 10.335938 123.835938 10.648438 124.554688 11.0625 L 136.570312 18.003906 C 139.410156 19.644531 142.472656 20.464844 145.753906 20.46875 L 159.628906 20.46875 C 160.460938 20.46875 161.277344 20.578125 162.078125 20.792969 C 162.878906 21.007812 163.640625 21.324219 164.359375 21.738281 C 165.078125 22.152344 165.734375 22.65625 166.320312 23.242188 C 166.910156 23.828125 167.410156 24.480469 167.828125 25.199219 L 174.765625 37.234375 C 176.40625 40.078125 178.648438 42.320312 181.488281 43.964844 L 193.515625 50.90625 C 194.234375 51.324219 194.886719 51.828125 195.472656 52.414062 C 196.0625 53.003906 196.5625 53.65625 196.976562 54.375 C 197.390625 55.09375 197.707031 55.855469 197.921875 56.660156 C 198.140625 57.460938 198.246094 58.277344 198.25 59.109375 L 198.25 72.988281 C 198.25 76.273438 199.070312 79.335938 200.707031 82.179688 L 207.644531 94.214844 C 208.058594 94.933594 208.375 95.695312 208.589844 96.5 C 208.804688 97.300781 208.910156 98.121094 208.910156 98.949219 C 208.910156 99.78125 208.804688 100.597656 208.589844 101.402344 C 208.375 102.203125 208.058594 102.964844 207.644531 103.6875 L 200.707031 115.71875 C 199.070312 118.566406 198.25 121.628906 198.25 124.910156 L 198.25 138.792969 C 198.246094 139.625 198.140625 140.441406 197.921875 141.242188 C 197.707031 142.042969 197.390625 142.804688 196.976562 143.523438 C 196.5625 144.246094 196.0625 144.898438 195.472656 145.488281 C 194.886719 146.074219 194.234375 146.578125 193.515625 146.992188 L 181.488281 153.9375 C 178.648438 155.582031 176.410156 157.824219 174.765625 160.667969 L 167.828125 172.699219 C 167.414062 173.417969 166.910156 174.070312 166.324219 174.660156 C 165.734375 175.246094 165.082031 175.746094 164.363281 176.164062 C 163.644531 176.578125 162.882812 176.894531 162.082031 177.109375 C 161.277344 177.324219 160.460938 177.433594 159.632812 177.433594 L 145.757812 177.433594 C 142.476562 177.433594 139.414062 178.253906 136.570312 179.894531 Z M 183.011719 189.496094 C 182.476562 189.460938 181.953125 189.519531 181.4375 189.675781 C 180.921875 189.828125 180.449219 190.066406 180.019531 190.390625 C 179.589844 190.714844 179.230469 191.105469 178.941406 191.558594 C 178.652344 192.011719 178.449219 192.5 178.335938 193.023438 L 171.691406 224.714844 L 143.074219 186.714844 C 143.945312 186.453125 144.835938 186.320312 145.746094 186.316406 L 159.617188 186.316406 C 161.230469 186.316406 162.816406 186.105469 164.371094 185.6875 C 165.929688 185.269531 167.40625 184.65625 168.800781 183.847656 C 170.199219 183.042969 171.464844 182.070312 172.605469 180.929688 C 173.746094 179.789062 174.722656 178.523438 175.53125 177.128906 L 182.46875 165.09375 C 183.3125 163.628906 184.46875 162.472656 185.933594 161.625 L 190.539062 158.964844 L 215.285156 191.824219 Z M 183.011719 189.496094 " fill-opacity="1" fill-rule="nonzero"/></g></svg>