<?xml version="1.0" encoding="UTF-8"?>
<svg id="Capa_2" data-name="Capa 2" xmlns="http://www.w3.org/2000/svg" viewBox="0 0 302.2 95.73">
  <defs>
    <style>
      .cls-1 {
        fill: #eb6923;
      }

      .cls-1, .cls-2 {
        stroke-width: 0px;
      }

      .cls-2 {
        fill: #787878;
      }
    </style>
  </defs>
  <g id="Capa_1-2" data-name="Capa 1">
    <g>
      <g>
        <path class="cls-2" d="M36.23,95.27h-4.05c-.47,0-.85-.12-1.13-.35-.29-.23-.5-.53-.65-.89l-3.62-9.34H9.42l-3.62,9.34c-.11.32-.32.61-.62.86-.31.25-.68.38-1.13.38H0l15.47-38.69h5.29l15.47,38.69ZM25.33,80.91l-6.08-15.74c-.18-.47-.37-1.01-.57-1.63-.2-.62-.39-1.28-.57-1.98-.38,1.46-.77,2.67-1.16,3.64l-6.08,15.71h14.44Z"/>
        <path class="cls-2" d="M55.92,91.11c1.6,0,3.03-.27,4.29-.81,1.26-.54,2.33-1.3,3.2-2.27.87-.97,1.54-2.13,2-3.48.46-1.35.69-2.83.69-4.45v-23.52h5.21v23.52c0,2.23-.36,4.3-1.07,6.21-.71,1.91-1.73,3.56-3.05,4.95-1.32,1.4-2.94,2.49-4.85,3.28-1.91.79-4.05,1.19-6.43,1.19s-4.52-.4-6.43-1.19c-1.91-.79-3.53-1.89-4.86-3.28-1.33-1.39-2.35-3.05-3.06-4.95-.71-1.91-1.07-3.98-1.07-6.21v-23.52h5.21v23.49c0,1.62.23,3.11.69,4.45.46,1.35,1.12,2.51,2,3.48.87.97,1.94,1.73,3.21,2.28,1.27.55,2.7.82,4.31.82Z"/>
        <path class="cls-2" d="M107.41,60.98h-12.53v34.29h-5.21v-34.29h-12.55v-4.4h30.29v4.4Z"/>
        <path class="cls-2" d="M147.69,75.94c0,2.9-.46,5.56-1.38,7.98-.92,2.42-2.21,4.5-3.89,6.25-1.67,1.75-3.69,3.1-6.03,4.06-2.35.96-4.95,1.44-7.79,1.44s-5.44-.48-7.78-1.44c-2.34-.96-4.35-2.32-6.02-4.06-1.67-1.75-2.97-3.83-3.89-6.25-.92-2.42-1.38-5.08-1.38-7.98s.46-5.56,1.38-7.98c.92-2.42,2.21-4.51,3.89-6.26,1.67-1.75,3.68-3.12,6.02-4.09,2.34-.97,4.93-1.46,7.78-1.46s5.44.49,7.79,1.46c2.35.97,4.36,2.34,6.03,4.09,1.67,1.76,2.97,3.84,3.89,6.26.92,2.42,1.38,5.08,1.38,7.98ZM142.32,75.94c0-2.38-.32-4.51-.97-6.4-.65-1.89-1.57-3.49-2.75-4.79-1.19-1.3-2.63-2.31-4.32-3.01s-3.58-1.05-5.67-1.05-3.95.35-5.64,1.05-3.14,1.71-4.33,3.01c-1.2,1.31-2.12,2.9-2.77,4.79-.65,1.89-.97,4.02-.97,6.4s.32,4.5.97,6.39c.65,1.88,1.57,3.47,2.77,4.78,1.2,1.31,2.64,2.3,4.33,3,1.69.69,3.57,1.04,5.64,1.04s3.98-.35,5.67-1.04c1.69-.69,3.13-1.69,4.32-3,1.19-1.3,2.11-2.9,2.75-4.78.65-1.88.97-4.01.97-6.39Z"/>
        <path class="cls-2" d="M177.98,89.28v5.99h-22.87v-39.04h7.26v33.05h15.61Z"/>
        <path class="cls-2" d="M191,95.27h-7.29v-39.04h7.29v39.04Z"/>
        <path class="cls-2" d="M207.55,62.01v11.56h14.63v5.8h-14.63v15.9h-7.29v-39.04h24.62v5.78h-17.33Z"/>
        <path class="cls-2" d="M238.65,62.01v10.83h13.66v5.59h-13.66v11.04h17.33v5.81h-24.62v-39.04h24.62v5.78h-17.33Z"/>
      </g>
      <path class="cls-1" d="M283.07,95.73h19.13s-.79-18.78-13.9-36.41l-15.62,9.31s7.45,13.92,10.39,27.09Z"/>
      <path class="cls-1" d="M266.66,59l13.22-10.53s-10.89-15.28-23.41-22.96l-9.24,11.45s9.64,7.83,19.43,22.05Z"/>
      <path class="cls-1" d="M238.09,29.86l7.2-11.88s-18.59-10.64-29.61-12.63l-3.49,10.37s12.36,3.92,25.9,14.13Z"/>
      <path class="cls-1" d="M200.91,12.07l1.72-9.73s-9.94-3.44-31.7-1.99v7.68s14.4-.91,29.98,4.03Z"/>
      <path class="cls-1" d="M157.97,2.13l1.07,6.39s-8.81-.16-29.45,6.77l-1.77-3.76s15.74-7.52,30.15-9.4Z"/>
      <path class="cls-1" d="M92.69,36.95c10.16-9.13,25.36-16.87,25.36-16.87l-1.13-2.53s-14.59,8.59-23.72,18.1c-.33.35-.52.81-.52,1.3h0Z"/>
    </g>
  </g>
</svg>