<svg xmlns="http://www.w3.org/2000/svg" xmlns:xlink="http://www.w3.org/1999/xlink" width="150" zoomAndPan="magnify" viewBox="0 0 112.5 149.999998" height="200" preserveAspectRatio="xMidYMid meet" version="1.0"><defs><clipPath id="01808bbed9"><path d="M 4 0.332031 L 109 0.332031 L 109 105 L 4 105 Z M 4 0.332031 " clip-rule="nonzero"/></clipPath><clipPath id="1455010500"><path d="M 6 101 L 63 101 L 63 149.667969 L 6 149.667969 Z M 6 101 " clip-rule="nonzero"/></clipPath><clipPath id="57880e5f8f"><path d="M 60 101 L 107 101 L 107 149.667969 L 60 149.667969 Z M 60 101 " clip-rule="nonzero"/></clipPath></defs><g clip-path="url(#01808bbed9)"><path fill="#ffffff" d="M 55.042969 81.613281 C 54.324219 81.613281 53.625 81.351562 53.082031 80.878906 C 48.976562 77.289062 44.871094 73.597656 40.898438 70.023438 C 36.953125 66.472656 32.871094 62.796875 28.804688 59.25 C 27.617188 58.210938 27.449219 56.429688 28.417969 55.183594 C 29.132812 54.269531 29.894531 53.4375 30.632812 52.628906 C 31.203125 52.007812 31.773438 51.378906 32.316406 50.71875 C 32.832031 50.085938 33.582031 49.695312 34.394531 49.632812 C 35.214844 49.566406 36.015625 49.84375 36.621094 50.386719 C 39.84375 53.289062 43.082031 56.195312 46.324219 59.097656 C 48.59375 61.128906 50.859375 63.164062 53.125 65.199219 L 75.050781 31.117188 C 75.929688 29.75 77.746094 29.34375 79.128906 30.199219 C 79.773438 30.597656 80.40625 31.011719 81.042969 31.429688 C 82.042969 32.082031 82.984375 32.699219 83.960938 33.253906 C 84.667969 33.652344 85.183594 34.328125 85.378906 35.121094 C 85.578125 35.910156 85.4375 36.75 85 37.4375 C 81.523438 42.871094 78.03125 48.296875 74.535156 53.722656 C 68.949219 62.394531 63.171875 71.363281 57.558594 80.226562 C 57.09375 80.960938 56.332031 81.453125 55.46875 81.578125 C 55.328125 81.601562 55.183594 81.613281 55.042969 81.613281 Z M 13.390625 52.519531 C 13.523438 54.804688 12.582031 56.628906 11.820312 58.105469 C 11.457031 58.804688 11.113281 59.46875 10.957031 60.046875 C 10.933594 60.136719 10.90625 60.226562 10.871094 60.316406 C 9.933594 62.828125 10.726562 66.09375 12.84375 68.433594 C 13.351562 69.003906 14.128906 69.511719 14.957031 70.054688 C 16.550781 71.09375 18.535156 72.394531 19.636719 74.792969 C 19.683594 74.898438 19.726562 75.003906 19.761719 75.113281 C 20.253906 76.625 20.394531 78.140625 20.519531 79.472656 C 20.632812 80.757812 20.746094 81.964844 21.144531 82.914062 C 22.191406 85.652344 24.859375 87.738281 27.832031 88.210938 C 27.917969 88.226562 28 88.242188 28.085938 88.265625 C 28.574219 88.386719 29.214844 88.417969 29.890625 88.449219 C 31.417969 88.523438 33.320312 88.613281 35.121094 89.792969 C 36.941406 90.882812 38.027344 92.585938 38.898438 93.953125 C 39.515625 94.929688 40.050781 95.765625 40.714844 96.214844 C 40.800781 96.269531 40.882812 96.332031 40.960938 96.402344 C 43.5625 98.582031 47.445312 99 50.402344 97.417969 C 52.164062 96.425781 55.199219 94.726562 58.683594 95.703125 C 58.773438 95.726562 58.863281 95.757812 58.953125 95.792969 C 59.84375 96.136719 60.664062 96.539062 61.460938 96.929688 C 62.941406 97.65625 64.222656 98.28125 65.480469 98.3125 C 65.546875 98.3125 65.609375 98.316406 65.667969 98.320312 C 68.605469 98.550781 71.664062 97.109375 73.410156 94.605469 C 73.652344 94.269531 73.855469 93.957031 74.066406 93.652344 C 74.9375 92.34375 75.925781 90.867188 77.570312 89.789062 C 79.34375 88.515625 81.40625 88.484375 82.910156 88.453125 C 83.554688 88.441406 84.167969 88.433594 84.582031 88.324219 C 84.679688 88.300781 84.785156 88.28125 84.886719 88.265625 C 88.574219 87.714844 91.777344 84.53125 92.179688 81.019531 C 92.195312 80.882812 92.21875 80.746094 92.253906 80.617188 C 92.378906 80.128906 92.421875 79.480469 92.46875 78.789062 C 92.589844 77.023438 92.757812 74.617188 94.5625 72.6875 C 95.621094 71.457031 96.867188 70.664062 97.972656 69.964844 C 98.691406 69.503906 99.371094 69.074219 99.835938 68.609375 C 101.988281 66.464844 102.875 63.222656 102.046875 60.546875 C 101.796875 59.644531 101.378906 58.816406 100.933594 57.941406 C 100.5625 57.207031 100.175781 56.449219 99.847656 55.59375 C 99.777344 55.417969 99.726562 55.238281 99.691406 55.050781 C 99.136719 51.996094 99.59375 49.289062 101.023438 47.230469 C 102.261719 45.226562 102.628906 42.578125 101.929688 40.269531 C 101.292969 38.089844 99.488281 36.191406 96.230469 34.261719 C 92.9375 32.144531 92.621094 28.757812 92.382812 26.285156 C 92.316406 25.542969 92.246094 24.835938 92.121094 24.261719 C 92.097656 24.175781 92.082031 24.085938 92.074219 24 C 91.710938 21.292969 89.660156 18.769531 86.964844 17.714844 C 85.964844 17.277344 84.796875 17.15625 83.554688 17.035156 C 81.460938 16.824219 78.855469 16.558594 76.613281 14.785156 C 76.523438 14.714844 76.4375 14.640625 76.355469 14.558594 C 75.441406 13.640625 74.734375 12.632812 74.113281 11.734375 C 73.542969 10.917969 73.003906 10.148438 72.410156 9.597656 C 72.367188 9.554688 72.324219 9.515625 72.285156 9.476562 C 70.402344 7.507812 67.53125 6.574219 65.144531 7.140625 C 65.082031 7.15625 65.015625 7.167969 64.953125 7.179688 C 64.078125 7.328125 63.105469 7.777344 62.078125 8.246094 C 59.921875 9.246094 57.238281 10.484375 53.980469 9.535156 C 52.835938 9.160156 51.859375 8.722656 50.914062 8.300781 C 48.890625 7.398438 47.144531 6.621094 45.566406 7.015625 C 45.433594 7.050781 45.300781 7.074219 45.164062 7.089844 C 41.726562 7.476562 39.445312 10.589844 38.398438 12.410156 C 37.394531 14.371094 34.9375 16.886719 29.304688 17.011719 C 25.898438 17.101562 22.601562 19.230469 21.300781 22.199219 C 20.800781 23.226562 20.699219 24.398438 20.582031 25.753906 C 20.453125 27.230469 20.308594 28.910156 19.644531 30.59375 C 18.617188 32.929688 16.8125 34.066406 15.359375 34.980469 C 14.6875 35.410156 14.050781 35.8125 13.660156 36.226562 C 13.601562 36.289062 13.539062 36.347656 13.476562 36.40625 C 10.882812 38.734375 9.878906 42.628906 11.082031 45.671875 C 11.273438 46.21875 11.550781 46.730469 11.839844 47.273438 C 12.578125 48.652344 13.488281 50.355469 13.390625 52.519531 Z M 46.46875 104.320312 C 43.164062 104.320312 39.878906 103.207031 37.246094 101.050781 C 35.632812 99.917969 34.699219 98.445312 33.867188 97.144531 C 33.226562 96.132812 32.667969 95.257812 31.957031 94.828125 C 31.410156 94.472656 30.574219 94.433594 29.605469 94.390625 C 28.753906 94.34375 27.785156 94.300781 26.773438 94.066406 C 21.734375 93.21875 17.363281 89.71875 15.617188 85.125 C 14.898438 83.429688 14.734375 81.613281 14.585938 80.019531 C 14.492188 78.96875 14.398438 77.976562 14.15625 77.136719 C 13.726562 76.355469 12.777344 75.738281 11.691406 75.023438 C 10.628906 74.332031 9.429688 73.542969 8.414062 72.40625 C 4.832031 68.453125 3.589844 62.953125 5.242188 58.363281 C 5.566406 57.230469 6.078125 56.246094 6.527344 55.378906 C 7.050781 54.363281 7.503906 53.488281 7.441406 52.808594 C 7.425781 52.640625 7.425781 52.472656 7.441406 52.304688 C 7.484375 51.753906 7.066406 50.976562 6.585938 50.074219 C 6.21875 49.394531 5.804688 48.621094 5.5 47.753906 C 3.4375 42.539062 5.027344 36.066406 9.402344 32.070312 C 10.292969 31.148438 11.292969 30.515625 12.175781 29.957031 C 13.097656 29.375 13.894531 28.875 14.144531 28.300781 C 14.449219 27.53125 14.546875 26.417969 14.648438 25.238281 C 14.796875 23.539062 14.960938 21.605469 15.902344 19.699219 C 18.078125 14.730469 23.429688 11.21875 29.160156 11.070312 C 30.660156 11.039062 32.5625 10.75 33.164062 9.574219 C 35.980469 4.691406 39.902344 1.769531 44.300781 1.207031 C 47.804688 0.390625 50.871094 1.765625 53.34375 2.871094 C 54.195312 3.253906 55 3.609375 55.753906 3.863281 C 56.710938 4.136719 57.78125 3.683594 59.582031 2.847656 C 60.832031 2.277344 62.242188 1.621094 63.863281 1.332031 C 68.253906 0.328125 73.207031 1.878906 76.527344 5.296875 C 77.5625 6.273438 78.324219 7.371094 79.003906 8.34375 C 79.488281 9.039062 79.949219 9.699219 80.4375 10.21875 C 81.316406 10.828125 82.636719 10.964844 84.15625 11.117188 C 85.726562 11.277344 87.511719 11.460938 89.257812 12.230469 C 93.820312 14.007812 97.269531 18.28125 97.957031 23.089844 C 98.152344 23.984375 98.234375 24.867188 98.316406 25.726562 C 98.503906 27.757812 98.671875 28.765625 99.363281 29.207031 C 102.1875 30.878906 106.230469 33.730469 107.640625 38.574219 C 108.839844 42.523438 108.25 46.875 106.007812 50.480469 C 105.34375 51.445312 105.355469 52.714844 105.507812 53.707031 C 105.71875 54.207031 105.976562 54.71875 106.25 55.253906 C 106.78125 56.304688 107.386719 57.492188 107.765625 58.890625 C 109.21875 63.59375 107.773438 69.097656 104.050781 72.8125 C 103.121094 73.738281 102.082031 74.402344 101.164062 74.980469 C 100.292969 75.53125 99.542969 76.007812 99.070312 76.578125 C 99.023438 76.632812 98.972656 76.6875 98.921875 76.742188 C 98.554688 77.121094 98.484375 78.128906 98.410156 79.195312 C 98.355469 80.019531 98.289062 80.945312 98.074219 81.886719 C 97.28125 88.007812 92.207031 93.117188 85.910156 94.121094 C 84.875 94.367188 83.890625 94.382812 83.015625 94.398438 C 82.101562 94.417969 81.308594 94.429688 80.9375 94.695312 C 80.207031 95.175781 79.628906 96.039062 79.015625 96.953125 C 78.769531 97.320312 78.523438 97.683594 78.273438 98.039062 C 75.382812 102.1875 70.269531 104.640625 65.261719 104.253906 C 62.726562 104.175781 60.660156 103.164062 58.832031 102.265625 C 58.179688 101.945312 57.558594 101.640625 56.957031 101.398438 C 55.957031 101.179688 54.738281 101.800781 53.269531 102.625 C 51.140625 103.765625 48.800781 104.320312 46.46875 104.320312 " fill-opacity="1" fill-rule="nonzero"/></g><g clip-path="url(#1455010500)"><path fill="#ffffff" d="M 20.652344 101.335938 C 19.871094 101.335938 19.445312 102.285156 19.113281 102.945312 C 15.25 111.101562 11.320312 119.316406 7.640625 127.65625 C 7.078125 128.964844 6.207031 130.144531 6.082031 131.578125 C 5.84375 133.191406 7.273438 134.632812 8.820312 134.632812 C 8.886719 134.632812 8.949219 134.632812 9.011719 134.625 C 12.472656 134.785156 15.917969 134.816406 19.355469 134.816406 C 21.644531 134.816406 23.933594 134.800781 26.222656 134.800781 C 27.363281 134.800781 28.507812 134.800781 29.648438 134.816406 C 33.332031 139.046875 36.757812 143.464844 40.3125 147.820312 C 41.167969 148.796875 41.902344 150.191406 43.339844 150.191406 C 43.367188 150.191406 43.398438 150.191406 43.429688 150.1875 C 43.628906 150.238281 43.824219 150.261719 44.019531 150.261719 C 45.277344 150.261719 46.367188 149.257812 46.796875 148.070312 C 52.160156 136.371094 56.960938 124.417969 62.386719 112.78125 C 60.640625 111.410156 58.457031 110.847656 56.464844 109.855469 C 53.140625 111.8125 49.269531 112.875 45.425781 112.875 C 41.695312 112.875 37.988281 111.875 34.828125 109.730469 C 31.894531 107.925781 29.902344 105 27.84375 102.261719 C 25.535156 101.949219 23.292969 101.574219 20.984375 101.390625 C 20.867188 101.351562 20.757812 101.335938 20.652344 101.335938 Z M 22.855469 106.515625 C 23.597656 106.613281 24.351562 106.71875 25.128906 106.832031 C 26.976562 109.292969 29.105469 111.941406 32.152344 113.84375 C 35.988281 116.417969 40.574219 117.777344 45.425781 117.777344 C 48.933594 117.777344 52.402344 117.078125 55.632812 115.738281 C 53.554688 120.363281 51.539062 125.023438 49.582031 129.570312 C 47.5625 134.246094 45.484375 139.058594 43.355469 143.78125 C 42.539062 142.78125 41.730469 141.773438 40.925781 140.769531 C 38.496094 137.742188 35.984375 134.617188 33.363281 131.601562 L 31.910156 129.933594 L 29.695312 129.910156 C 28.539062 129.902344 27.378906 129.898438 26.222656 129.898438 C 25.070312 129.898438 23.925781 129.902344 22.777344 129.902344 C 21.636719 129.90625 20.496094 129.910156 19.355469 129.910156 C 17.144531 129.910156 14.636719 129.898438 12.050781 129.828125 C 12.078125 129.765625 12.109375 129.695312 12.136719 129.632812 C 15.429688 122.15625 18.992188 114.65625 22.433594 107.402344 L 22.855469 106.515625 " fill-opacity="1" fill-rule="nonzero"/></g><g clip-path="url(#57880e5f8f)"><path fill="#ffffff" d="M 93.441406 101.328125 C 90.632812 101.328125 87.890625 101.949219 85.144531 102.199219 C 82.402344 106.617188 78.347656 110.664062 73.050781 111.910156 C 71.613281 112.28125 69.558594 112.40625 68.933594 114.089844 C 66.1875 120.808594 63.074219 127.347656 60.328125 134.066406 C 62.199219 138.921875 64.445312 143.527344 66.441406 148.320312 C 66.839844 149.289062 67.609375 150.207031 68.699219 150.207031 C 68.792969 150.207031 68.894531 150.203125 68.996094 150.1875 C 69.164062 150.214844 69.328125 150.230469 69.484375 150.230469 C 71.410156 150.230469 72.457031 148.210938 73.609375 146.886719 C 76.976562 142.902344 80.03125 138.734375 83.464844 134.816406 C 90.070312 134.5 96.683594 134.625 103.289062 134.5625 C 104.476562 134.5 105.972656 134.316406 106.660156 133.195312 C 107.65625 130.644531 105.78125 128.402344 104.847656 126.222656 C 101.109375 117.882812 97.488281 109.542969 93.441406 101.328125 Z M 90.472656 106.457031 C 93.128906 111.996094 95.652344 117.65625 98.101562 123.15625 C 98.855469 124.847656 99.609375 126.535156 100.335938 128.15625 C 100.566406 128.699219 100.824219 129.210938 101.066406 129.675781 C 99.824219 129.679688 98.578125 129.683594 97.335938 129.683594 C 92.730469 129.691406 87.96875 129.691406 83.230469 129.917969 L 81.140625 130.015625 L 79.761719 131.585938 C 77.785156 133.851562 75.929688 136.183594 74.140625 138.441406 C 72.746094 140.195312 71.308594 142.007812 69.902344 143.671875 C 69.878906 143.699219 69.851562 143.730469 69.828125 143.757812 C 69.355469 142.671875 68.882812 141.597656 68.410156 140.542969 C 67.433594 138.347656 66.5 136.242188 65.625 134.105469 C 66.757812 131.40625 67.957031 128.691406 69.125 126.054688 C 70.441406 123.082031 71.792969 120.019531 73.074219 116.929688 C 73.15625 116.910156 73.234375 116.894531 73.304688 116.878906 C 73.625 116.8125 73.933594 116.742188 74.226562 116.667969 C 80.605469 115.152344 85.078125 110.804688 87.96875 106.800781 C 88.28125 106.757812 88.589844 106.714844 88.894531 106.671875 C 89.433594 106.59375 89.957031 106.519531 90.472656 106.457031 " fill-opacity="1" fill-rule="nonzero"/></g></svg>