<svg xmlns="http://www.w3.org/2000/svg" xmlns:xlink="http://www.w3.org/1999/xlink" width="188" zoomAndPan="magnify" viewBox="0 0 141.75 240.749997" height="321" preserveAspectRatio="xMidYMid meet" version="1.0"><defs><g/><clipPath id="a482b15c06"><path d="M 0 0.0859375 L 141.5 0.0859375 L 141.5 240.414062 L 0 240.414062 Z M 0 0.0859375 " clip-rule="nonzero"/></clipPath><clipPath id="b948439c7f"><path d="M 0 219.253906 L 112 219.253906 L 112 240.414062 L 0 240.414062 Z M 0 219.253906 " clip-rule="nonzero"/></clipPath><clipPath id="16aee107a1"><path d="M 0 0.0859375 L 141.5 0.0859375 L 141.5 17.035156 L 0 17.035156 Z M 0 0.0859375 " clip-rule="nonzero"/></clipPath><clipPath id="266812fe2d"><path d="M 83 206 L 141.5 206 L 141.5 240.414062 L 83 240.414062 Z M 83 206 " clip-rule="nonzero"/></clipPath><clipPath id="66bcac5e48"><path d="M 125.664062 204.214844 L 169.707031 256.675781 L 124.371094 294.738281 L 80.328125 242.277344 Z M 125.664062 204.214844 " clip-rule="nonzero"/></clipPath><clipPath id="84e2cb0958"><path d="M 130.003906 209.382812 L 165.164062 251.265625 C 167.5625 254.121094 167.191406 258.378906 164.335938 260.777344 L 129.429688 290.082031 C 126.574219 292.476562 122.316406 292.105469 119.917969 289.25 L 84.757812 247.367188 C 82.363281 244.511719 82.734375 240.253906 85.589844 237.859375 L 120.496094 208.554688 C 123.351562 206.15625 127.609375 206.527344 130.003906 209.382812 " clip-rule="nonzero"/></clipPath><clipPath id="69f6e00d87"><path d="M 106 187 L 141.5 187 L 141.5 240.414062 L 106 240.414062 Z M 106 187 " clip-rule="nonzero"/></clipPath><clipPath id="3d273d70a1"><path d="M 165.765625 185.816406 L 218.175781 247.386719 L 156.605469 299.792969 L 104.199219 238.226562 Z M 165.765625 185.816406 " clip-rule="nonzero"/></clipPath><clipPath id="9c57a459bb"><path d="M 212.753906 244.898438 C 213.726562 246.042969 213.585938 247.777344 212.445312 248.75 L 158.988281 294.25 C 157.847656 295.222656 156.109375 295.082031 155.140625 293.941406 L 109.636719 240.484375 C 108.667969 239.34375 108.804688 237.609375 109.949219 236.636719 L 163.402344 191.136719 C 164.542969 190.164062 166.28125 190.300781 167.253906 191.445312 L 212.753906 244.898438 M 214.671875 243.269531 L 169.167969 189.8125 C 167.292969 187.609375 163.972656 187.34375 161.769531 189.21875 L 108.316406 234.71875 C 106.113281 236.59375 105.847656 239.914062 107.722656 242.117188 L 153.222656 295.574219 C 155.097656 297.773438 158.417969 298.042969 160.621094 296.167969 L 214.074219 250.664062 C 216.277344 248.792969 216.542969 245.46875 214.671875 243.269531 " clip-rule="nonzero"/></clipPath><clipPath id="f86167427f"><path d="M 0 0.0859375 L 62 0.0859375 L 62 31 L 0 31 Z M 0 0.0859375 " clip-rule="nonzero"/></clipPath><clipPath id="303889a2fd"><path d="M 19.507812 -59.089844 L 64.636719 -5.332031 L 18.652344 33.273438 L -26.476562 -20.484375 Z M 19.507812 -59.089844 " clip-rule="nonzero"/></clipPath><clipPath id="abf7965ca9"><path d="M 23.847656 -53.921875 L 60.070312 -10.773438 C 62.464844 -7.921875 62.09375 -3.664062 59.238281 -1.265625 L 23.847656 28.445312 C 20.996094 30.839844 16.738281 30.46875 14.339844 27.613281 L -21.882812 -15.53125 C -24.277344 -18.386719 -23.90625 -22.644531 -21.050781 -25.042969 L 14.339844 -54.75 C 17.191406 -57.148438 21.449219 -56.777344 23.847656 -53.921875 " clip-rule="nonzero"/></clipPath><clipPath id="f33ea16f02"><path d="M 0 0.0859375 L 77 0.0859375 L 77 29 L 0 29 Z M 0 0.0859375 " clip-rule="nonzero"/></clipPath><clipPath id="655a3715a8"><path d="M 41.066406 -50.738281 L 78.164062 -7.152344 L 34.582031 29.945312 L -2.519531 -13.640625 Z M 41.066406 -50.738281 " clip-rule="nonzero"/></clipPath><clipPath id="c77f178307"><path d="M 74.328125 -8.914062 C 75.015625 -8.105469 74.917969 -6.878906 74.109375 -6.191406 L 36.269531 26.019531 C 35.460938 26.707031 34.230469 26.609375 33.542969 25.800781 L 1.332031 -12.039062 C 0.644531 -12.847656 0.742188 -14.074219 1.550781 -14.765625 L 39.390625 -46.972656 C 40.199219 -47.660156 41.429688 -47.5625 42.117188 -46.753906 L 74.328125 -8.914062 M 75.683594 -10.070312 L 43.472656 -47.910156 C 42.148438 -49.46875 39.796875 -49.65625 38.238281 -48.332031 L 0.398438 -16.121094 C -1.160156 -14.792969 -1.351562 -12.441406 -0.0234375 -10.882812 L 32.1875 26.957031 C 33.511719 28.515625 35.863281 28.703125 37.421875 27.378906 L 75.261719 -4.832031 C 76.820312 -6.160156 77.011719 -8.511719 75.683594 -10.070312 " clip-rule="nonzero"/></clipPath></defs><g clip-path="url(#a482b15c06)"><path fill="#ffffff" d="M 0 0.0859375 L 141.75 0.0859375 L 141.75 248.335938 L 0 248.335938 Z M 0 0.0859375 " fill-opacity="1" fill-rule="nonzero"/><path fill="#ffffff" d="M 0 0.0859375 L 141.75 0.0859375 L 141.75 240.835938 L 0 240.835938 Z M 0 0.0859375 " fill-opacity="1" fill-rule="nonzero"/><path fill="#ffffff" d="M 0 0.0859375 L 141.75 0.0859375 L 141.75 240.835938 L 0 240.835938 Z M 0 0.0859375 " fill-opacity="1" fill-rule="nonzero"/></g><g clip-path="url(#b948439c7f)"><path fill="#58595b" d="M -58.289062 219.253906 L 111.792969 219.253906 L 111.792969 271.078125 L -58.289062 271.078125 Z M -58.289062 219.253906 " fill-opacity="1" fill-rule="nonzero"/></g><g clip-path="url(#16aee107a1)"><path fill="#ed6e00" d="M -26.222656 -34.144531 L 202.988281 -34.144531 L 202.988281 17.011719 L -26.222656 17.011719 Z M -26.222656 -34.144531 " fill-opacity="1" fill-rule="nonzero"/></g><g clip-path="url(#266812fe2d)"><g clip-path="url(#66bcac5e48)"><g clip-path="url(#84e2cb0958)"><path fill="#ff7612" d="M 125.664062 204.214844 L 169.707031 256.675781 L 124.371094 294.738281 L 80.328125 242.277344 Z M 125.664062 204.214844 " fill-opacity="1" fill-rule="nonzero"/></g></g></g><g clip-path="url(#69f6e00d87)"><g clip-path="url(#3d273d70a1)"><g clip-path="url(#9c57a459bb)"><path fill="#ffffff" d="M 165.765625 185.816406 L 218.175781 247.386719 L 156.605469 299.792969 L 104.199219 238.226562 Z M 165.765625 185.816406 " fill-opacity="1" fill-rule="nonzero"/></g></g></g><g clip-path="url(#f86167427f)"><g clip-path="url(#303889a2fd)"><g clip-path="url(#abf7965ca9)"><path fill="#58595b" d="M 19.507812 -59.089844 L 64.636719 -5.332031 L 18.652344 33.273438 L -26.476562 -20.484375 Z M 19.507812 -59.089844 " fill-opacity="1" fill-rule="nonzero"/></g></g></g><g clip-path="url(#f33ea16f02)"><g clip-path="url(#655a3715a8)"><g clip-path="url(#c77f178307)"><path fill="#ffffff" d="M 41.066406 -50.738281 L 78.164062 -7.152344 L 34.582031 29.945312 L -2.519531 -13.640625 Z M 41.066406 -50.738281 " fill-opacity="1" fill-rule="nonzero"/></g></g></g><g fill="#000000" fill-opacity="1"><g transform="translate(70.866133, 69.302293)"><g/></g></g><g fill="#000000" fill-opacity="1"><g transform="translate(79.98574, 77.97304)"><g/></g></g><g fill="#ffffff" fill-opacity="1"><g transform="translate(80.41143, 85.065124)"><g/></g></g></svg>