<?xml version="1.0"?>
<svg xmlns="http://www.w3.org/2000/svg" id="Outline" viewBox="0 0 512 512" width="512" height="512"><path d="M88,496H424a8,8,0,0,0,8-8V24a8,8,0,0,0-8-8H88a8,8,0,0,0-8,8V488A8,8,0,0,0,88,496ZM216,80h80a39.962,39.962,0,0,0,31.978-16H368V425.052l-11.562-7.708a8,8,0,0,0-8.876,0L328,430.385l-19.562-13.041a8,8,0,0,0-8.876,0L280,430.385l-19.562-13.041a8,8,0,0,0-8.876,0L232,430.385l-19.562-13.041a8,8,0,0,0-8.876,0L184,430.385l-19.562-13.041a8,8,0,0,0-8.876,0L144,425.052V64h40.022A39.962,39.962,0,0,0,216,80Zm80-16H216a24.027,24.027,0,0,1-24-24V32H320v8A24.027,24.027,0,0,1,296,64ZM96,32h80v8a40.028,40.028,0,0,0,.805,8H136a8,8,0,0,0-8,8V440a8,8,0,0,0,12.438,6.656L160,433.615l19.562,13.041a8,8,0,0,0,8.876,0L208,433.615l19.562,13.041a8,8,0,0,0,8.876,0L256,433.615l19.562,13.041a8,8,0,0,0,8.876,0L304,433.615l19.562,13.041a8,8,0,0,0,8.876,0L352,433.615l19.562,13.041A8,8,0,0,0,384,440V56a8,8,0,0,0-8-8H335.2A40.028,40.028,0,0,0,336,40V32h80V480H96Z"/><path d="M184,160h16a8,8,0,0,1,0,16H176a8,8,0,0,0,0,16h8v8a8,8,0,0,0,16,0v-8a24,24,0,0,0,0-48H184a8,8,0,0,1,0-16h24a8,8,0,0,0,0-16h-8v-8a8,8,0,0,0-16,0v8a24,24,0,0,0,0,48Z"/><path d="M288,128h56a8,8,0,0,0,0-16H288a8,8,0,0,0,0,16Z"/><path d="M248,192h56a8,8,0,0,0,0-16H248a8,8,0,0,0,0,16Z"/><path d="M248,160h96a8,8,0,0,0,0-16H248a8,8,0,0,0,0,16Z"/><path d="M168,240H344a8,8,0,0,0,0-16H168a8,8,0,0,0,0,16Z"/><path d="M168,272H344a8,8,0,0,0,0-16H168a8,8,0,0,0,0,16Z"/><path d="M200,304h40a8,8,0,0,0,0-16H200a8,8,0,0,0,0,16Z"/><path d="M200,336h40a8,8,0,0,0,0-16H200a8,8,0,0,0,0,16Z"/><path d="M200,368h40a8,8,0,0,0,0-16H200a8,8,0,0,0,0,16Z"/><path d="M344,288H320a8,8,0,0,0,0,16h24a8,8,0,0,0,0-16Z"/><path d="M344,320H320a8,8,0,0,0,0,16h24a8,8,0,0,0,0-16Z"/><path d="M344,352H320a8,8,0,0,0,0,16h24a8,8,0,0,0,0-16Z"/><path d="M312,384H200a8,8,0,0,0,0,16H312a8,8,0,0,0,0-16Z"/><circle cx="256" cy="120" r="8"/><circle cx="168" cy="296" r="8"/><circle cx="168" cy="328" r="8"/><circle cx="168" cy="360" r="8"/></svg>
